<svg width="24.000000" height="24.000000" viewBox="0 0 24 24" fill="none" xmlns="http://www.w3.org/2000/svg" xmlns:xlink="http://www.w3.org/1999/xlink">
	<desc>
			Created with Pixso.
	</desc>
	<defs>
		<clipPath id="clip9_1">
			<rect id="user" width="24.000000" height="24.000000" fill="white"/>
		</clipPath>
	</defs>
	<g clip-path="url(#clip9_1)">
		<path id="path" d="M22 12C22 6.47714 17.5229 2 12 2C6.47715 2 2 6.47714 2 12C2 17.5229 6.47715 22 12 22C17.5229 22 22 17.5229 22 12Z" stroke="#000000" stroke-width="1.500000" stroke-linejoin="round"/>
		<path id="path" d="M14.5 9C14.5 7.61929 13.3807 6.5 12 6.5C10.6193 6.5 9.5 7.61929 9.5 9C9.5 10.3807 10.6193 11.5 12 11.5C13.3807 11.5 14.5 10.3807 14.5 9Z" stroke="#000000" stroke-width="1.500000" stroke-linejoin="round"/>
		<path id="path" d="M5.011 19.166C5.18285 16.5603 7.3508 14.5 10 14.5L14 14.5C16.6457 14.5 18.8115 16.5548 18.9883 19.1556" stroke="#000000" stroke-width="1.500000" stroke-linejoin="round" stroke-linecap="round"/>
	</g>
</svg>
